<svg width="1920" height="1080" viewBox="0 0 1920 1080" fill="none" xmlns="http://www.w3.org/2000/svg">
  <defs>
    <linearGradient id="azulLila1" x1="0" y1="0" x2="0" y2="1">
      <stop offset="0%" stop-color="#dbeafe"/>
      <stop offset="100%" stop-color="#ede9fe"/>
    </linearGradient>
    <linearGradient id="azulLila2" x1="0" y1="0" x2="0" y2="1">
      <stop offset="0%" stop-color="#a5b4fc"/>
      <stop offset="100%" stop-color="#c7d2fe"/>
    </linearGradient>
    <linearGradient id="azulLila3" x1="0" y1="0" x2="0" y2="1">
      <stop offset="0%" stop-color="#c4b5fd"/>
      <stop offset="100%" stop-color="#f3e8ff"/>
    </linearGradient>
    <linearGradient id="azulLila4" x1="0" y1="0" x2="0" y2="1">
      <stop offset="0%" stop-color="#a5b4fc"/>
      <stop offset="100%" stop-color="#e0e7ff"/>
    </linearGradient>
  </defs>
  <!-- Fila 1 -->
  <polygon points="0,180 160,0 320,180 160,360" fill="url(#azulLila1)"/>
  <polygon points="160,360 320,180 480,360 320,540" fill="url(#azulLila2)"/>
  <polygon points="320,540 480,360 640,540 480,720" fill="url(#azulLila3)"/>
  <polygon points="480,720 640,540 800,720 640,900" fill="url(#azulLila4)"/>
  <polygon points="640,900 800,720 960,900 800,1080" fill="url(#azulLila1)"/>
  <polygon points="800,1080 960,900 1120,1080 960,1260" fill="url(#azulLila2)"/>
  <polygon points="960,1260 1120,1080 1280,1260 1120,1440" fill="url(#azulLila3)"/>
  <polygon points="1120,1440 1280,1260 1440,1440 1280,1620" fill="url(#azulLila4)"/>
  <!-- Fila 2 -->
  <polygon points="80,270 240,90 400,270 240,450" fill="url(#azulLila2)"/>
  <polygon points="240,450 400,270 560,450 400,630" fill="url(#azulLila3)"/>
  <polygon points="400,630 560,450 720,630 560,810" fill="url(#azulLila4)"/>
  <polygon points="560,810 720,630 880,810 720,990" fill="url(#azulLila1)"/>
  <polygon points="720,990 880,810 1040,990 880,1170" fill="url(#azulLila2)"/>
  <polygon points="880,1170 1040,990 1200,1170 1040,1350" fill="url(#azulLila3)"/>
  <polygon points="1040,1350 1200,1170 1360,1350 1200,1530" fill="url(#azulLila4)"/>
  <!-- Fila 3 -->
  <polygon points="160,360 320,180 480,360 320,540" fill="url(#azulLila3)"/>
  <polygon points="320,540 480,360 640,540 480,720" fill="url(#azulLila4)"/>
  <polygon points="480,720 640,540 800,720 640,900" fill="url(#azulLila1)"/>
  <polygon points="640,900 800,720 960,900 800,1080" fill="url(#azulLila2)"/>
  <polygon points="800,1080 960,900 1120,1080 960,1260" fill="url(#azulLila3)"/>
  <polygon points="960,1260 1120,1080 1280,1260 1120,1440" fill="url(#azulLila4)"/>
  <!-- Fila 4 -->
  <polygon points="240,450 400,270 560,450 400,630" fill="url(#azulLila4)"/>
  <polygon points="400,630 560,450 720,630 560,810" fill="url(#azulLila1)"/>
  <polygon points="560,810 720,630 880,810 720,990" fill="url(#azulLila2)"/>
  <polygon points="720,990 880,810 1040,990 880,1170" fill="url(#azulLila3)"/>
  <polygon points="880,1170 1040,990 1200,1170 1040,1350" fill="url(#azulLila4)"/>
</svg>
