<svg xmlns="http://www.w3.org/2000/svg" viewBox="0 0 64 64" role="img" aria-label="Favicon cerebrito caricatura">
  <defs>
    <linearGradient id="bgCute" x1="0" y1="0" x2="1" y2="1">
      <stop offset="0%" stop-color="#e0f2ff"/>
      <stop offset="100%" stop-color="#b3dcff"/>
    </linearGradient>
    <linearGradient id="brainCute" x1="0" y1="0" x2="1" y2="1">
      <stop offset="0%" stop-color="#ff9ec1"/>
      <stop offset="100%" stop-color="#ff5e96"/>
    </linearGradient>
  </defs>

  <rect x="2" y="2" width="60" height="60" rx="14" fill="url(#bgCute)"/>
  <path d="M22 25c-3 0-5 2-5 5 0 2 1 4 3 5-1 1-1 3 0 4 1 2 2 2 4 2h16c2 0 3 0 4-2 1-1 1-3 0-4 2-1 3-3 3-5 0-3-2-5-5-5-1-3-4-5-8-5s-7 2-8 5z" fill="url(#brainCute)"/>
  <path d="M32 20v22M26 26c2 2 2 5 0 7m12-7c-2 2-2 5 0 7M24 35c2 1 3 3 3 5m13-5c-2 1-3 3-3 5" stroke="#ffd7e6" stroke-width="2" stroke-linecap="round" fill="none"/>
  <circle cx="28" cy="33" r="1.8" fill="#1e40af"/>
  <circle cx="36" cy="33" r="1.8" fill="#1e40af"/>
  <path d="M28 38c1.2 1.5 2.5 2.2 4 2.2s2.8-.7 4-2.2" stroke="#1e40af" stroke-width="1.8" stroke-linecap="round" fill="none"/>
  <text x="50" y="52" text-anchor="middle" font-size="13" font-family="Arial, sans-serif" fill="#1e40af" font-weight="700">∑</text>
</svg>
