<svg xmlns="http://www.w3.org/2000/svg" viewBox="0 0 64 64" role="img" aria-label="Favicon matematico minimalista">
  <defs>
    <linearGradient id="bgMin" x1="0" y1="0" x2="1" y2="1">
      <stop offset="0%" stop-color="#ecf8ff"/>
      <stop offset="100%" stop-color="#cfe9ff"/>
    </linearGradient>
    <linearGradient id="brainMin" x1="0" y1="0" x2="1" y2="1">
      <stop offset="0%" stop-color="#ff94b8"/>
      <stop offset="100%" stop-color="#ff6fa3"/>
    </linearGradient>
  </defs>

  <rect x="2" y="2" width="60" height="60" rx="14" fill="url(#bgMin)"/>
  <path d="M23 26c-3 0-5 2-5 5 0 2 1 4 3 5-1 1-1 3 0 4 1 1 2 2 4 2h14c2 0 3-1 4-2 1-1 1-3 0-4 2-1 3-3 3-5 0-3-2-5-5-5-1-3-4-5-7-5s-6 2-7 5z" fill="url(#brainMin)"/>
  <path d="M32 21v21M26 27c2 2 2 5 0 7m12-7c-2 2-2 5 0 7" stroke="#ffd9e7" stroke-width="2" stroke-linecap="round" fill="none"/>
  <text x="48" y="51" text-anchor="middle" font-size="14" font-family="Arial, sans-serif" fill="#1e40af" font-weight="700">π</text>
</svg>
