<svg xmlns="http://www.w3.org/2000/svg" viewBox="0 0 64 64" role="img" aria-label="Cerebro matematico">
  <defs>
    <linearGradient id="bg" x1="0" y1="0" x2="1" y2="1">
      <stop offset="0%" stop-color="#e3f2fd"/>
      <stop offset="100%" stop-color="#bbdefb"/>
    </linearGradient>
    <linearGradient id="brain" x1="0" y1="0" x2="1" y2="1">
      <stop offset="0%" stop-color="#ff87b2"/>
      <stop offset="100%" stop-color="#ff5f95"/>
    </linearGradient>
  </defs>

  <rect x="2" y="2" width="60" height="60" rx="14" fill="url(#bg)"/>
  <circle cx="16" cy="14" r="2" fill="#7cb2de"/>
  <circle cx="50" cy="12" r="2" fill="#7cb2de"/>
  <text x="50" y="52" text-anchor="middle" font-size="14" font-family="Arial, sans-serif" fill="#1e40af" font-weight="700">∑</text>

  <path d="M23 25c-3 0-5 2-5 5 0 2 1 4 3 5-1 1-1 3 0 4 1 1 2 2 4 2h14c2 0 3-1 4-2 1-1 1-3 0-4 2-1 3-3 3-5 0-3-2-5-5-5-1-3-4-5-7-5s-6 2-7 5z" fill="url(#brain)"/>
  <path d="M32 20v22M26 25c2 2 2 5 0 7m12-7c-2 2-2 5 0 7M24 36c2 1 3 3 3 5m13-5c-2 1-3 3-3 5" stroke="#ffd3e2" stroke-width="2" stroke-linecap="round" fill="none"/>
  <rect x="28.5" y="41" width="7" height="7" rx="2" fill="#ffe082"/>
</svg>
